# xmcd
#
# Track frame offsets:
# 150
# 34435
# 59300
# 80238
# 107668
# 142450
# 181178
# 212025
#
# Disc length: 3099 seconds
#
#
# Revision: 1
# Processed by: cddbd v1.5.2PL0 Copyright (c) Steve Scherf et al.
# Submitted via: FreeRIP 2.60 
#
DISCID=7b0c1908
DTITLE=Tom Harrell - Moon Alley
DYEAR=1900
DGENRE=Jazz
TTITLE0=Blues in Six
TTITLE1=Change of Pace
TTITLE2=Rapture
TTITLE3=Twenty Bar Tune
TTITLE4=Open Air
TTITLE5=Moon Alley
TTITLE6=Scrapple from the Apple
TTITLE7=Rapture (take 1)
EXTD=
EXTT0=
EXTT1=
EXTT2=
EXTT3=
EXTT4=
EXTT5=
EXTT6=
EXTT7=
PLAYORDER=
